<svg width="117" height="54" viewBox="0 0 117 54" fill="none" xmlns="http://www.w3.org/2000/svg">
<path d="M40.2791 24.3231C40.7655 19.9449 43.9762 16.8316 48.4516 16.8316C52.9271 16.8316 56.235 19.9449 56.6242 24.3231H63.7265C63.2401 16.2478 56.7215 10.0211 48.5489 10.0211C40.3764 10.0211 33.7605 16.2478 33.274 24.3231H40.2791ZM23.8366 26.0744C23.6421 30.8417 20.1395 34.1496 15.4695 34.1496C10.7995 34.1496 7.29693 30.8417 7.19964 26.0744H0V53.9H7.10235V37.6522H7.19964C9.14549 39.598 11.8697 40.9601 15.7614 40.9601C24.1285 40.9601 30.6471 34.6361 30.8417 26.0744H23.8366ZM7.19964 24.3231C7.58881 19.8477 10.994 16.8316 15.4695 16.8316C19.9449 16.8316 23.3502 19.9449 23.8366 24.3231H30.939C30.4525 16.1505 24.3231 10.0211 16.1505 10.0211C12.2588 10.0211 9.14549 11.4805 7.29693 13.4264H7.10235V10.6049H0V24.3231H7.19964ZM105.951 40.3764H113.054V26.0744H105.951V40.3764ZM90.482 40.3764H97.5843V26.0744H90.482V40.3764ZM82.2121 26.0744H68.3966C69.856 27.0473 72.191 28.2148 73.6504 28.7986C76.5691 29.8688 77.6394 30.5498 77.6394 31.9119C77.6394 33.274 76.0827 34.0523 74.1368 34.0523C71.8018 34.0523 70.1478 33.1767 68.4939 31.7173L63.8238 36.3874C66.548 39.1116 69.3695 40.9601 74.2341 40.9601C79.3906 40.9601 84.7417 37.263 84.7417 31.7173C84.7417 29.285 83.6715 27.4365 82.2121 26.0744ZM56.7215 26.0744C56.5269 30.8417 53.219 34.1496 48.4516 34.1496C43.7816 34.1496 40.3764 30.7444 40.1818 26.0744H33.0794C33.274 34.3442 39.9872 40.9601 48.3543 40.9601C56.7215 40.9601 63.4347 34.3442 63.6292 26.0744H56.7215ZM113.054 10.6049H105.951V24.3231H113.054V10.6049ZM90.482 24.3231H97.5843V16.8316H104.103V10.6049H97.5843V0H90.482V10.6049H85.1309V16.8316H90.482V24.3231ZM80.2663 24.3231C78.9042 23.4475 77.2502 22.7664 75.7908 22.28C73.0666 21.307 71.8018 20.626 71.8018 19.0693C71.8018 17.8045 73.0666 16.9289 74.7206 16.9289C76.4718 16.9289 78.2231 17.6099 79.6825 18.972L84.2552 14.0101C81.5311 11.4805 78.7096 10.1184 74.7206 10.1184C70.6343 10.1184 65.0886 13.3291 65.0886 19.3612C65.0886 21.4043 65.7697 23.0583 66.8399 24.3231H80.2663Z" fill="#1B1B1B"/>
<path d="M111.983 1.65384C111.497 1.65384 110.427 2.52947 110.427 5.93471C111.497 5.05908 112.567 3.30781 112.567 2.33489C112.47 1.84843 112.372 1.65384 111.983 1.65384ZM107.411 3.89157C107.021 3.89157 106.827 4.18345 106.827 4.57262C106.827 5.54554 107.8 6.12929 108.87 6.32388C108.87 6.22659 108.87 6.12929 108.87 6.032C108.87 4.86449 108.286 3.89157 107.411 3.89157ZM104.881 6.51846C105.757 7.19951 106.438 7.88056 107.216 7.88056C107.605 7.88056 107.8 7.78327 107.994 7.68597C106.34 7.19951 105.367 5.83742 105.367 4.57262C105.367 3.40511 106.146 2.52947 107.411 2.52947C108.189 2.52947 108.773 2.91864 109.259 3.30781C109.746 1.36196 110.913 0.291748 112.178 0.291748C113.345 0.291748 113.929 1.16738 113.929 2.43218C113.929 3.98886 112.47 6.51846 110.718 7.49139C110.913 7.78327 111.205 7.97785 111.691 7.97785C113.248 7.97785 114.61 6.61576 115.486 5.54554C115.68 5.35095 115.875 5.25366 116.07 5.25366C116.459 5.25366 116.751 5.54554 116.751 5.93471C116.751 6.12929 116.653 6.32388 116.556 6.42117C115.68 7.3941 113.929 9.33994 111.691 9.33994C110.718 9.33994 109.94 8.85348 109.551 8.26973C108.967 8.95077 108.189 9.33994 107.216 9.33994C106.243 9.33994 105.27 8.6589 104.394 7.97785C104.005 7.68597 103.519 7.2968 103.227 7.10222C102.935 6.81034 102.643 6.71305 102.546 6.71305C101.962 6.71305 101.768 6.32388 101.768 5.93471C101.768 5.54554 102.059 5.25366 102.546 5.25366C102.935 5.25366 103.324 5.44825 103.713 5.64283C104.103 5.83742 104.492 6.12929 104.881 6.51846Z" fill="#1B1B1B"/>
</svg>
